<?xml version="1.0" encoding="utf-8"?>
<!-- Generator: Adobe Illustrator 17.0.0, SVG Export Plug-In . SVG Version: 6.00 Build 0)  -->
<!DOCTYPE svg PUBLIC "-//W3C//DTD SVG 1.1//EN" "http://www.w3.org/Graphics/SVG/1.1/DTD/svg11.dtd">
<svg version="1.1"
	 id="svg2" xmlns:dc="http://purl.org/dc/elements/1.1/" xmlns:cc="http://creativecommons.org/ns#" xmlns:rdf="http://www.w3.org/1999/02/22-rdf-syntax-ns#" xmlns:inkscape="http://www.inkscape.org/namespaces/inkscape" xmlns:sodipodi="http://sodipodi.sourceforge.net/DTD/sodipodi-0.dtd" xmlns:svg="http://www.w3.org/2000/svg" inkscape:export-ydpi="337.63" inkscape:export-xdpi="337.63" inkscape:export-filename="/home/maks/work/MGit/docs/feature.png" sodipodi:docname="feature.svg" inkscape:version="0.91 r13725"
	 xmlns="http://www.w3.org/2000/svg" xmlns:xlink="http://www.w3.org/1999/xlink" x="0px" y="0px" width="272.962px"
	 height="114.013px" viewBox="0 0 272.962 114.013" enable-background="new 0 0 272.962 114.013" xml:space="preserve">
<path id="path14" inkscape:connector-curvature="0" fill="#3366CC" d="M163.591,38.806c-5.985,0-10.443,2.939-10.443,10.012
	c0,5.329,2.938,9.028,10.12,9.028c6.087,0,10.223-3.587,10.223-9.248C173.491,42.182,169.791,38.806,163.591,38.806z
	 M151.625,88.746c-1.416,1.738-2.827,3.585-2.827,5.765c0,4.348,5.545,5.657,13.163,5.657c6.31,0,14.905-0.442,14.905-6.308
	c0-3.487-4.135-3.703-9.36-4.03L151.625,88.746z M183.826,39.135c1.955,2.503,4.025,5.985,4.025,10.989
	c0,12.075-9.465,19.145-23.169,19.145c-3.485,0-6.64-0.434-8.596-0.977l-3.591,5.765l10.66,0.651
	c18.822,1.199,29.915,1.744,29.915,16.208c0,12.514-10.985,19.581-29.915,19.581c-19.69,0-27.196-5.005-27.196-13.598
	c0-4.897,2.176-7.503,5.984-11.098c-3.591-1.518-4.786-4.236-4.786-7.175c0-2.395,1.195-4.57,3.156-6.639
	c1.958-2.065,4.133-4.135,6.744-6.527c-5.33-2.61-9.356-8.268-9.356-16.319c0-12.509,8.269-21.101,24.91-21.101
	c4.679,0,7.509,0.431,10.011,1.087h21.215v9.245L183.826,39.135"/>
<path id="path16" inkscape:connector-curvature="0" fill="#3366CC" d="M212.975,19.366c-6.202,0-9.791-3.593-9.791-9.796
	c0-6.195,3.589-9.57,9.791-9.57c6.31,0,9.9,3.375,9.9,9.57C222.875,15.773,219.285,19.366,212.975,19.366z M198.939,84.743v-8.59
	l5.55-0.759c1.524-0.221,1.74-0.544,1.74-2.18V41.23c0-1.194-0.325-1.959-1.416-2.283l-5.874-2.069l1.196-8.809h22.521v45.144
	c0,1.744,0.105,1.959,1.741,2.18l5.549,0.759v8.59H198.939"/>
<path id="path18" inkscape:connector-curvature="0" fill="#3366CC" d="M272.966,80.526c-4.68,2.282-11.533,4.349-17.736,4.349
	c-12.945,0-17.839-5.217-17.839-17.515v-28.5c0-0.651,0-1.088-0.874-1.088h-7.614v-9.682c9.576-1.091,13.381-5.878,14.577-17.736
	h10.336v15.453c0,0.759,0,1.087,0.871,1.087h15.337v10.877h-16.209v25.999c0,6.419,1.525,8.919,7.396,8.919
	c3.05,0,6.201-0.759,8.813-1.739L272.966,80.526"/>
<path id="path20" inkscape:connector-curvature="0" fill="#3366CC" d="M111.777,51.977L62.035,2.238
	c-2.862-2.865-7.508-2.865-10.375,0L41.332,12.568L54.434,25.67c3.046-1.028,6.537-0.339,8.964,2.088
	c2.439,2.442,3.124,5.963,2.07,9.02l12.628,12.628c3.055-1.053,6.58-0.373,9.02,2.071c3.411,3.41,3.411,8.935,0,12.345
	c-3.411,3.412-8.936,3.412-12.349,0c-2.564-2.567-3.199-6.334-1.9-9.494L61.089,42.551l-0.001,30.991
	c0.832,0.412,1.616,0.961,2.309,1.651c3.41,3.409,3.41,8.933,0,12.348c-3.411,3.409-8.938,3.409-12.345,0
	c-3.41-3.415-3.41-8.939,0-12.348c0.843-0.841,1.818-1.478,2.858-1.905V42.009c-1.041-0.425-2.014-1.058-2.858-1.905
	c-2.583-2.581-3.205-6.372-1.88-9.544L36.256,17.642L2.15,51.747c-2.866,2.867-2.866,7.513,0,10.378l49.742,49.739
	c2.864,2.865,7.508,2.865,10.376,0l49.509-49.508C114.642,59.489,114.642,54.842,111.777,51.977"/>
</svg>
