<?xml version="1.0" encoding="UTF-8" standalone="no"?>
<!-- Created with Inkscape (http://www.inkscape.org/) -->

<svg
   xmlns:dc="http://purl.org/dc/elements/1.1/"
   xmlns:cc="http://creativecommons.org/ns#"
   xmlns:rdf="http://www.w3.org/1999/02/22-rdf-syntax-ns#"
   xmlns:svg="http://www.w3.org/2000/svg"
   xmlns="http://www.w3.org/2000/svg"
   xmlns:sodipodi="http://sodipodi.sourceforge.net/DTD/sodipodi-0.dtd"
   xmlns:inkscape="http://www.inkscape.org/namespaces/inkscape"
   id="svg2"
   version="1.1"
   inkscape:version="0.91 r13725"
   xml:space="preserve"
   width="272.96249"
   height="114.0125"
   viewBox="0 0 272.96249 114.0125"
   sodipodi:docname="feature.svg"
   inkscape:export-filename="/home/maks/work/MGit/docs/feature.png"
   inkscape:export-xdpi="337.63"
   inkscape:export-ydpi="337.63"><metadata
     id="metadata8"><rdf:RDF><cc:Work
         rdf:about=""><dc:format>image/svg+xml</dc:format><dc:type
           rdf:resource="http://purl.org/dc/dcmitype/StillImage" /><dc:title /></cc:Work></rdf:RDF></metadata><defs
     id="defs6" /><sodipodi:namedview
     pagecolor="#ffffff"
     bordercolor="#666666"
     borderopacity="1"
     objecttolerance="10"
     gridtolerance="10"
     guidetolerance="10"
     inkscape:pageopacity="0"
     inkscape:pageshadow="2"
     inkscape:window-width="1609"
     inkscape:window-height="1170"
     id="namedview4"
     showgrid="false"
     inkscape:zoom="1.3445071"
     inkscape:cx="5.2063763"
     inkscape:cy="57.00625"
     inkscape:window-x="103"
     inkscape:window-y="131"
     inkscape:window-maximized="0"
     inkscape:current-layer="g10" /><g
     id="g10"
     inkscape:groupmode="layer"
     inkscape:label="ink_ext_XXXXXX"
     transform="matrix(1.25,0,0,-1.25,0,114.0125)"><g
       id="g12"
       transform="scale(0.1,0.1)"><path
         d="m 1308.73,601.652 c -47.88,0 -83.54,-23.511 -83.54,-80.093 0,-42.633 23.5,-72.227 80.96,-72.227 48.7,0 81.78,28.695 81.78,73.988 0,51.328 -29.6,78.332 -79.2,78.332 z M 1213,202.133 c -11.33,-13.906 -22.62,-28.68 -22.62,-46.117 0,-34.786 44.36,-45.254 105.3,-45.254 50.48,0 119.24,3.535 119.24,50.468 0,27.895 -33.08,29.622 -74.88,32.243 l -127.04,8.66 z m 257.61,396.89 c 15.64,-20.023 32.2,-47.878 32.2,-87.91 0,-96.601 -75.72,-153.164 -185.35,-153.164 -27.88,0 -53.12,3.473 -68.77,7.817 l -28.73,-46.118 85.28,-5.21 c 150.58,-9.594 239.32,-13.954 239.32,-129.661 0,-100.109 -87.88,-156.652 -239.32,-156.652 -157.52,0 -217.57,40.0391 -217.57,108.781 0,39.18 17.41,60.02 47.87,88.782 -28.73,12.144 -38.29,33.89 -38.29,57.398 0,19.16 9.56,36.562 25.25,53.109 15.66,16.52 33.06,33.078 53.95,52.219 -42.64,20.883 -74.85,66.141 -74.85,130.555 0,100.074 66.15,168.804 199.28,168.804 37.43,0 60.07,-3.445 80.09,-8.699 l 169.72,0 0,-73.957 -80.08,-6.094"
         style="fill:#f03c2e;fill-opacity:1;fill-rule:nonzero;stroke:none"
         id="path14"
         inkscape:connector-curvature="0" /><path
         d="m 1703.8,757.168 c -49.62,0 -78.33,28.746 -78.33,78.371 0,49.563 28.71,76.563 78.33,76.563 50.48,0 79.2,-27 79.2,-76.563 0,-49.625 -28.72,-78.371 -79.2,-78.371 z m -112.29,-523.012 0,68.719 44.4,6.074 c 12.19,1.766 13.92,4.356 13.92,17.442 l 0,255.867 c 0,9.555 -2.6,15.672 -11.33,18.262 l -46.99,16.55 9.57,70.469 180.17,0 0,-361.148 c 0,-13.95 0.84,-15.676 13.93,-17.442 l 44.39,-6.074 0,-68.719 -248.06,0"
         style="fill:#f03c2e;fill-opacity:1;fill-rule:nonzero;stroke:none"
         id="path16"
         inkscape:connector-curvature="0" /><path
         d="m 2183.73,267.895 c -37.44,-18.254 -92.26,-34.793 -141.89,-34.793 -103.56,0 -142.71,41.734 -142.71,140.121 l 0,228.004 c 0,5.211 0,8.707 -6.99,8.707 l -60.91,0 0,77.453 c 76.61,8.726 107.05,47.027 116.62,141.886 l 82.69,0 0,-123.625 c 0,-6.07 0,-8.699 6.97,-8.699 l 122.7,0 0,-87.015 -129.67,0 0,-207.989 c 0,-51.355 12.2,-71.355 59.17,-71.355 24.4,0 49.61,6.074 70.5,13.914 l 23.52,-76.609"
         style="fill:#f03c2e;fill-opacity:1;fill-rule:nonzero;stroke:none"
         id="path18"
         inkscape:connector-curvature="0" /><path
         d="m 894.215,496.285 -397.938,397.91 c -22.898,22.918 -60.066,22.918 -82.996,0 L 330.652,811.559 435.469,706.738 c 24.367,8.227 52.297,2.711 71.711,-16.707 19.515,-19.539 24.992,-47.707 16.558,-72.156 l 101.024,-101.02 c 24.441,8.422 52.64,2.981 72.156,-16.57 27.285,-27.277 27.285,-71.476 0,-98.762 -27.289,-27.293 -71.488,-27.293 -98.789,0 -20.516,20.532 -25.59,50.676 -15.199,75.954 l -94.215,94.218 -0.008,-247.929 c 6.652,-3.293 12.93,-7.688 18.473,-13.207 27.277,-27.274 27.277,-71.465 0,-98.782 -27.285,-27.273 -71.504,-27.273 -98.762,0 -27.281,27.317 -27.281,71.508 0,98.782 6.742,6.73 14.543,11.824 22.867,15.238 l 0,250.23 c -8.324,3.403 -16.113,8.461 -22.867,15.239 -20.664,20.648 -25.641,50.976 -15.043,76.351 L 290.051,770.961 17.1992,498.125 c -22.92576,-22.937 -22.92576,-60.105 0,-83.027 L 415.133,17.1875 c 22.91,-22.91797 60.066,-22.91797 83.008,0 L 894.215,413.254 c 22.918,22.93 22.918,60.109 0,83.031"
         style="fill:#f03c2e;fill-opacity:1;fill-rule:nonzero;stroke:none"
         id="path20"
         inkscape:connector-curvature="0" /></g><path
       style="fill:#3366cc"
       d="M 54.666875,113.13953 C 52.441668,112.29185 2.970341,63.16176 1.4387715,60.27857 -1.0229121,55.644434 -0.85721057,55.408107 18.390379,36.101751 l 18.018495,-18.073509 6.155534,6.123557 c 5.693557,5.663981 6.122309,6.30066 5.71284,8.483318 -0.558262,2.975791 1.508828,7.552097 3.90422,8.643512 l 1.74164,0.793544 0,15.35985 0,15.35985 -2.164724,1.60045 c -6.691672,4.947367 -2.907375,15.785934 5.511676,15.785934 7.978715,0 12.059461,-10.680628 5.924517,-15.506374 l -1.833798,-1.442469 0,-15.121567 0,-15.121566 5.514598,5.477794 c 5.040161,5.006523 5.481078,5.684365 5.12496,7.87886 -0.512503,3.158188 1.599463,7.555834 4.299143,8.951891 1.151738,0.595588 3.482942,1.082887 5.180449,1.082887 2.518313,0 3.551822,-0.465444 5.615188,-2.528808 2.157839,-2.157839 2.528808,-3.041141 2.528808,-6.021263 0,-2.309972 -0.507889,-4.205719 -1.500052,-5.599078 -1.653029,-2.321472 -5.821575,-4.039035 -8.54107,-3.519171 -1.399532,0.267538 -2.909252,-0.833576 -7.56792,-5.519651 -5.412611,-5.444457 -5.825898,-6.082245 -5.909405,-9.11944 -0.05581,-2.029858 -0.693803,-4.113845 -1.68599,-5.507244 -1.67762,-2.356 -5.931844,-4.230947 -8.233975,-3.628926 -0.96449,0.25222 -3.214272,-1.509589 -7.761785,-6.078269 l -6.403629,-6.433435 5.765563,-5.7027636 c 6.291237,-6.22271052 8.533725,-7.27263934 11.821534,-5.534818 1.169006,0.6178959 13.756123,12.7889176 27.97137,27.0467156 25.201884,25.277323 25.845904,25.996255 25.845904,28.852411 0,2.860311 -0.62483,3.55259 -26.589671,29.459882 -16.760327,16.723185 -27.277037,26.673665 -28.449088,26.917365 -1.02268,0.21265 -2.696156,0.0679 -3.718836,-0.32169 z"
       id="path3348"
       inkscape:connector-curvature="0"
       transform="matrix(0.8,0,0,-0.8,0,91.21)" /><path
       style="fill:#3366cc"
       d="m 151.83098,109.44183 c -9.87735,-1.44248 -15.34127,-5.86883 -15.34695,-12.432624 -0.003,-3.707668 0.80544,-5.551745 3.84383,-8.765524 l 2.18058,-2.306459 -1.83157,-1.20009 c -2.48194,-1.626229 -3.74711,-5.576483 -2.68946,-8.397374 0.44387,-1.183871 2.704,-4.07838 5.02252,-6.432242 l 4.21549,-4.279748 -2.79049,-2.300155 c -4.48064,-3.693324 -6.06631,-7.455393 -6.08139,-14.428426 -0.0114,-5.286503 0.24371,-6.406384 2.28769,-10.040855 2.65162,-4.714951 7.8357,-8.343875 13.72341,-9.606563 2.28869,-0.490835 10.10238,-0.599202 21.49141,-0.298059 l 17.89526,0.473176 0,4.247737 0,4.247737 -5.13289,0.505782 -5.13289,0.505782 1.9254,3.444899 c 3.60138,6.44358 2.29481,15.05469 -3.10333,20.452831 -4.24015,4.240154 -7.96071,5.390519 -17.89209,5.532095 l -8.88221,0.12662 -1.71488,2.903815 -1.71489,2.903815 13.02206,0.900926 c 21.11543,1.460865 25.91088,3.77767 27.48444,13.278446 1.26324,7.627142 -3.89755,15.759038 -11.90184,18.753828 -7.67136,2.87022 -18.62097,3.70844 -28.87721,2.21063 z m 21.70597,-10.641657 c 4.98666,-2.5787 4.7745,-7.195885 -0.39211,-8.533852 -1.55221,-0.401965 -7.19988,-0.960713 -12.55039,-1.241663 l -9.7282,-0.510816 -1.30718,2.754663 c -3.16741,6.674828 1.38237,9.495705 14.5169,9.000535 4.64865,-0.17526 7.95083,-0.687938 9.46098,-1.468867 z m -5.60766,-41.616896 c 3.73792,-1.582091 5.21299,-3.743104 5.53553,-8.109673 0.33419,-4.524134 -1.52239,-8.290103 -4.67847,-9.490043 -2.82426,-1.073781 -9.02375,-0.879558 -11.41627,0.357659 -4.02909,2.083524 -5.6642,8.565784 -3.37666,13.386436 2.06057,4.342323 8.54639,6.136747 13.93587,3.855621 z"
       id="path3350"
       inkscape:connector-curvature="0"
       transform="matrix(0.8,0,0,-0.8,0,91.21)" /><path
       style="fill:#3366cc"
       d="m 199.10475,80.323344 c 0.20398,-3.543051 0.39706,-3.924065 2.08423,-4.112998 1.02268,-0.114521 2.61248,-0.371919 3.53289,-0.571995 l 1.67348,-0.363774 0,-17.878061 0,-17.87806 -3.34696,-1.480516 c -2.96697,-1.312434 -3.34579,-1.750992 -3.33679,-3.862955 0.0252,-5.904998 -0.33053,-5.72939 11.60498,-5.72939 l 10.69787,0 0,22.631768 c 0,25.150233 -0.0354,24.969321 4.88762,24.969321 l 2.55005,0 0,4.090719 0,4.090718 -15.28609,0 -15.28609,0 0.22481,-3.904777 z"
       id="path3352"
       inkscape:connector-curvature="0"
       transform="matrix(0.8,0,0,-0.8,0,91.21)" /><path
       style="fill:#3366cc"
       d="m 206.88543,17.249188 c -2.37674,-1.86955 -3.82457,-6.364369 -3.17144,-9.8458498 1.70718,-9.1000441 15.67305,-9.5898175 18.35339,-0.6436404 1.2328,4.1147222 -0.17415,8.6840152 -3.25174,10.5605332 -3.29528,2.009257 -9.33123,1.973313 -11.93021,-0.07104 z"
       id="path3354"
       inkscape:connector-curvature="0"
       transform="matrix(0.8,0,0,-0.8,0,91.21)" /><path
       style="fill:#3366cc"
       d="m 245.36953,82.810922 c -6.72174,-3.052649 -7.72649,-6.758727 -7.73182,-28.519423 l -0.004,-16.9207 -4.09072,0 -4.09072,0 0,-4.448432 c 0,-4.240165 0.0958,-4.470993 2.04536,-4.930333 1.12495,-0.265046 3.30811,-1.174084 4.85146,-2.020084 3.16389,-1.73431 6.11735,-6.936581 6.93518,-12.215753 l 0.4897,-3.16101 4.73942,0 4.73943,0 0,8.181437 0,8.181437 8.18144,0 8.18143,0 0,5.206369 0,5.206369 -8.18143,0 -8.18144,0 0.042,14.317515 c 0.0456,15.568227 0.63672,18.859078 3.67685,20.47098 1.77213,0.9396 7.724,0.820174 11.52839,-0.231319 1.2756,-0.352561 1.66628,0.200863 2.7421,3.884312 1.45319,4.975499 1.59649,4.785855 -5.23769,6.931672 -6.31989,1.984338 -16.34121,2.016863 -20.63477,0.06696 z"
       id="path3356"
       inkscape:connector-curvature="0"
       transform="matrix(0.8,0,0,-0.8,0,91.21)" /></g></svg>