<?xml version="1.0" encoding="utf-8"?>
<!-- Generator: Adobe Illustrator 17.0.0, SVG Export Plug-In . SVG Version: 6.00 Build 0)  -->
<!DOCTYPE svg PUBLIC "-//W3C//DTD SVG 1.1//EN" "http://www.w3.org/Graphics/SVG/1.1/DTD/svg11.dtd">
<svg version="1.1"
	 id="svg2" xmlns:dc="http://purl.org/dc/elements/1.1/" xmlns:cc="http://creativecommons.org/ns#" xmlns:rdf="http://www.w3.org/1999/02/22-rdf-syntax-ns#" xmlns:inkscape="http://www.inkscape.org/namespaces/inkscape" xmlns:sodipodi="http://sodipodi.sourceforge.net/DTD/sodipodi-0.dtd" xmlns:svg="http://www.w3.org/2000/svg" inkscape:export-ydpi="337.63" inkscape:export-xdpi="337.63" inkscape:export-filename="/home/maks/work/MGit/docs/feature.png" sodipodi:docname="feature.svg" inkscape:version="0.91 r13725"
	 xmlns="http://www.w3.org/2000/svg" xmlns:xlink="http://www.w3.org/1999/xlink" x="0px" y="0px" width="272.962px"
	 height="114.013px" viewBox="0 0 272.962 114.013" enable-background="new 0 0 272.962 114.013" xml:space="preserve">
<path id="path14" inkscape:connector-curvature="0" fill="#3366CC" d="M163.591,38.806c-5.985,0-10.443,2.939-10.443,10.012
	c0,5.329,2.938,9.028,10.12,9.028c6.087,0,10.223-3.587,10.223-9.248C173.491,42.182,169.791,38.806,163.591,38.806z
	 M151.625,88.746c-1.416,1.738-2.827,3.585-2.827,5.765c0,4.348,5.545,5.657,13.163,5.657c6.31,0,14.905-0.442,14.905-6.308
	c0-3.487-4.135-3.703-9.36-4.03L151.625,88.746z M183.826,39.135c1.955,2.503,4.025,5.985,4.025,10.989
	c0,12.075-9.465,19.145-23.169,19.145c-3.485,0-6.64-0.434-8.596-0.977l-3.591,5.765l10.66,0.651
	c18.822,1.199,29.915,1.744,29.915,16.208c0,12.514-10.985,19.581-29.915,19.581c-19.69,0-27.196-5.005-27.196-13.598
	c0-4.897,2.176-7.503,5.984-11.098c-3.591-1.518-4.786-4.236-4.786-7.175c0-2.395,1.195-4.57,3.156-6.639
	c1.958-2.065,4.133-4.135,6.744-6.527c-5.33-2.61-9.356-8.268-9.356-16.319c0-12.509,8.269-21.101,24.91-21.101
	c4.679,0,7.509,0.431,10.011,1.087h21.215v9.245L183.826,39.135"/>
<path id="path16" inkscape:connector-curvature="0" fill="#3366CC" d="M212.975,19.366c-6.202,0-9.791-3.593-9.791-9.796
	c0-6.195,3.589-9.57,9.791-9.57c6.31,0,9.9,3.375,9.9,9.57C222.875,15.773,219.285,19.366,212.975,19.366z M198.939,84.743v-8.59
	l5.55-0.759c1.524-0.221,1.74-0.544,1.74-2.18V41.23c0-1.194-0.325-1.959-1.416-2.283l-5.874-2.069l1.196-8.809h22.521v45.144
	c0,1.744,0.105,1.959,1.741,2.18l5.549,0.759v8.59L198.939,84.743"/>
<path id="path18" inkscape:connector-curvature="0" fill="#3366CC" d="M272.966,80.526c-4.68,2.282-11.533,4.349-17.736,4.349
	c-12.945,0-17.839-5.217-17.839-17.515v-28.5c0-0.651,0-1.088-0.874-1.088h-7.614V28.09c9.576-1.091,13.381-5.878,14.577-17.736
	h10.336v15.453c0,0.759,0,1.087,0.871,1.087h15.337v10.877h-16.209V63.77c0,6.419,1.525,8.919,7.396,8.919
	c3.05,0,6.201-0.759,8.813-1.739L272.966,80.526"/>
<path id="path14_1_" inkscape:connector-curvature="0" fill="#3366CC" d="M112.693,52.319L62.544,2.172
	c-2.887-2.889-7.571-2.889-10.462,0L41.67,12.586l13.209,13.21c3.07-1.037,6.591-0.341,9.037,2.106
	c2.461,2.462,3.15,6.013,2.087,9.094l12.732,12.73c3.081-1.062,6.633-0.376,9.094,2.089c3.438,3.437,3.438,9.007,0,12.447
	c-3.44,3.439-9.01,3.439-12.451,0c-2.585-2.588-3.225-6.387-1.914-9.573L61.589,42.815v31.246c0.837,0.415,1.628,0.968,2.327,1.664
	c3.438,3.437,3.438,9.007,0,12.45c-3.438,3.436-9.011,3.436-12.446,0c-3.438-3.442-3.438-9.013,0-12.45
	c0.85-0.849,1.833-1.491,2.883-1.92V42.269c-1.05-0.43-2.031-1.066-2.883-1.921c-2.604-2.603-3.23-6.424-1.895-9.622L36.553,17.702
	L2.166,52.086c-2.888,2.891-2.888,7.575,0,10.464l50.151,50.147c2.887,2.888,7.57,2.888,10.461,0l49.915-49.915
	C115.582,59.893,115.582,55.207,112.693,52.319"/>
<circle id="circle_2_" fill="#3366CC" cx="81.597" cy="58.015" r="3.948"/>
<circle id="circle_1_" fill="#3366CC" cx="57.723" cy="34.182" r="3.948"/>
<circle id="circle" fill="#3366CC" cx="57.649" cy="81.973" r="3.948"/>
<g id="tap_x5F_group">
	<circle opacity="0.2" fill="#010101" stroke="#010101" cx="30.816" cy="66.208" r="11.765"/>
	<path opacity="0.2" fill="#010101" stroke="#010101" stroke-width="0.5" d="M30.816,51.959c7.869,0,14.249,6.379,14.249,14.249
		c0,0.856-0.089,1.689-0.233,2.503c0.812-1.712,1.279-3.62,1.279-5.641c0-7.292-5.911-13.203-13.203-13.203
		c-3.884,0-7.365,1.687-9.781,4.356C25.346,52.797,27.981,51.959,30.816,51.959z"/>
	<circle fill="#FFFFFF" cx="29.816" cy="64.208" r="11.765"/>
	<path fill="#FFFFFF" d="M29.816,49.959c7.869,0,14.249,6.379,14.249,14.249c0,0.856-0.089,1.689-0.233,2.503
		c0.812-1.712,1.279-3.62,1.279-5.641c0-7.292-5.911-13.203-13.203-13.203c-3.884,0-7.365,1.687-9.781,4.356
		C24.346,50.797,26.981,49.959,29.816,49.959z"/>
</g>
</svg>
