<svg xmlns="http://www.w3.org/2000/svg" viewBox="0 0 48 48"><defs><style>.cls-1{fill:#36c;}</style></defs><title>ic_launcher</title><g id="Layer_2" data-name="Layer 2"><g id="svg2"><path class="cls-1" d="M47.09,21.86l-21-21a3.09,3.09,0,0,0-4.37,0L17.41,5.26l5.52,5.52a3.67,3.67,0,0,1,4.65,4.68l5.32,5.32a3.67,3.67,0,1,1-2.2,2.07l-5-5V30.95a3.68,3.68,0,1,1-4.23.7,3.67,3.67,0,0,1,1.2-.8V17.66a3.68,3.68,0,0,1-2-4.82L15.28,7.4.91,21.76a3.09,3.09,0,0,0,0,4.37l21,21a3.09,3.09,0,0,0,4.37,0L47.09,26.23a3.09,3.09,0,0,0,0-4.37m-13,.73a1.65,1.65,0,1,1-1.65,1.65A1.65,1.65,0,0,1,34.1,22.59Zm-10-10a1.65,1.65,0,1,1-1.65,1.65A1.65,1.65,0,0,1,24.12,12.63Zm0,20a1.65,1.65,0,1,1-1.65,1.65A1.65,1.65,0,0,1,24.09,32.6Z"/></g></g></svg>